Coordinates
version=1
nRows=49
nColumns=12
inDegrees=yes

Units are S.I. units (second, meters, Newtons, ...)
Angles are in degrees

endheader
time	SC_y	SC_z	SC_x	AC_y	AC_z	AC_x	GH_y	GH_z	GH_yy	EL_x	PS_y
       0.0              -52.47          1.775          42.25          69.34          -16.8         -5.176          139.9          80.72         -18.63          69.99           65.9
   0.03237              -52.47          1.778          42.25          69.34         -16.79         -5.176          139.9          80.71         -18.65           70.0          65.89
   0.06473              -52.47          1.782          42.25          69.34         -16.79         -5.176          139.8           80.7         -18.67          70.01          65.89
    0.0971              -52.47          1.785          42.24          69.34         -16.79         -5.175          139.8          80.69          -18.7          70.01          65.89
    0.1295              -52.47          1.789          42.24          69.34         -16.79         -5.175          139.7          80.68         -18.72          70.02          65.88
    0.1618              -52.47          1.793          42.23          69.34         -16.78         -5.174          139.7          80.67         -18.75          70.03          65.88
    0.1942              -52.47          1.798          42.23          69.33         -16.78         -5.174          139.6          80.66         -18.77          70.04          65.87
    0.2266              -52.47          1.802          42.22          69.33         -16.78         -5.173          139.6          80.64          -18.8          70.05          65.87
    0.2589              -52.47          1.807          42.21          69.33         -16.77         -5.173          139.5          80.63         -18.84          70.06          65.86
    0.2913              -52.47          1.813          42.21          69.33         -16.77         -5.172          139.5          80.61         -18.87          70.07          65.85
    0.3237              -52.47          1.819           42.2          69.32         -16.76         -5.172          139.4          80.59         -18.91          70.08          65.85
     0.356              -52.47          1.825          42.19          69.32         -16.76         -5.171          139.3          80.57         -18.95           70.1          65.84
    0.3884              -52.47          1.832          42.19          69.32         -16.75          -5.17          139.3          80.55         -18.99          70.11          65.83
    0.4208              -52.47          1.839          42.18          69.31         -16.75          -5.17          139.2          80.53         -19.04          70.13          65.82
    0.4531              -52.47          1.847          42.17          69.31         -16.74         -5.169          139.1          80.51         -19.09          70.14          65.81
    0.4855              -52.47          1.855          42.16          69.31         -16.74         -5.168          139.0          80.48         -19.14          70.16           65.8
    0.5179              -52.47          1.865          42.14           69.3         -16.73         -5.167          138.9          80.45          -19.2          70.18          65.79
    0.5502              -52.47          1.875          42.13           69.3         -16.72         -5.166          138.8          80.42         -19.26           70.2          65.78
    0.5826              -52.47          1.886          42.12          69.29         -16.71         -5.164          138.6          80.39         -19.33          70.23          65.77
    0.6149              -52.47          1.898           42.1          69.29         -16.71         -5.163          138.5          80.35         -19.41          70.25          65.75
    0.6473              -52.47          1.911          42.09          69.28          -16.7         -5.162          138.3          80.31         -19.49          70.28          65.74
    0.6797              -52.48          1.926          42.07          69.27         -16.69          -5.16          138.2          80.27         -19.59          70.31          65.72
     0.712              -52.48          1.942          42.05          69.27         -16.67         -5.158          138.0          80.22         -19.69          70.34           65.7
    0.7444              -52.48           1.96          42.03          69.26         -16.66         -5.156          137.8          80.17          -19.8          70.38          65.68
    0.7768              -52.48           1.98           42.0          69.25         -16.65         -5.154          137.5           80.1         -19.93          70.42          65.66
    0.8091              -52.48          2.002          41.98          69.24         -16.63         -5.152          137.3          80.04         -20.07          70.47          65.63
    0.8415              -52.48          2.027          41.95          69.23         -16.61         -5.149          137.0          79.96         -20.22          70.52           65.6
    0.8739              -52.48          2.055          41.91          69.21         -16.59         -5.146          136.7          79.88          -20.4          70.58          65.57
    0.9062              -52.48          2.087          41.87           69.2         -16.57         -5.143          136.3          79.78          -20.6          70.65          65.54
    0.9386              -52.48          2.123          41.83          69.18         -16.54         -5.139          135.9          79.67         -20.83          70.73          65.49
     0.971              -52.48          2.164          41.78          69.16         -16.51         -5.134          135.4          79.55         -21.09          70.81          65.45
     1.003              -52.49          2.211          41.72          69.14         -16.48         -5.129          134.8          79.41         -21.39          70.91          65.39
     1.036              -52.49          2.265          41.65          69.11         -16.44         -5.124          134.2          79.24         -21.73          71.03          65.33
     1.068              -52.49          2.328          41.58          69.08         -16.39         -5.117          133.5          79.05         -22.13          71.16          65.25
       1.1              -52.49          2.402          41.49          69.05         -16.34         -5.109          132.6          78.83         -22.59          71.32          65.17
     1.133               -52.5          2.489          41.38          69.01         -16.27         -5.099          131.6          78.57         -23.15           71.5          65.07
     1.165               -52.5          2.592          41.25          68.96          -16.2         -5.088          130.4          78.25          -23.8          71.72          64.95
     1.198              -52.51          2.716           41.1           68.9         -16.11         -5.075          129.0          77.88         -24.58          71.98           64.8
      1.23              -52.51          2.866          40.92          68.83          -16.0         -5.059          127.2          77.43         -25.53           72.3          64.63
     1.262              -52.52           3.05          40.69          68.74         -15.86         -5.039          125.1          76.87         -26.69          72.68          64.42
     1.295              -52.53          3.276          40.41          68.64          -15.7         -5.014          122.4          76.19         -28.12          73.16          64.15
     1.327              -52.54          3.558          40.07           68.5         -15.49         -4.984          119.2          75.34          -29.9          73.76          63.83
     1.359              -52.55          3.913          39.63          68.34         -15.23         -4.946          115.0          74.26         -32.15          74.51          63.41
     1.392              -52.57          4.365          39.08          68.12          -14.9         -4.897          109.8           72.9         -35.01          75.46          62.89
     1.424              -52.59          4.943          38.37          67.85         -14.48         -4.834          103.1          71.15         -38.66          76.68          62.22
     1.456              -52.62          5.685          37.46           67.5         -13.94         -4.754          94.42          68.91         -43.35          78.25          61.35
     1.489              -52.66          6.632           36.3          67.06         -13.24         -4.652          83.39          66.05         -49.34          80.25          60.25
     1.521              -52.71          7.824          34.84          66.49         -12.37         -4.523          69.53          62.45         -56.88          82.77          58.87
     1.554              -52.77          9.276          33.06          65.81         -11.31         -4.366          52.63          58.06         -66.06          85.83          57.18
